<svg version="1.1" id="Layer_1" xmlns="http://www.w3.org/2000/svg" xmlns:xlink="http://www.w3.org/1999/xlink" x="0px" y="0px"
	 width="100%" viewBox="0 0 768 768" enable-background="new 0 0 768 768" xml:space="preserve">
<path fill="#FFFFFF" opacity="1.000000" stroke="none" 
	d="
M432.000000,769.000000 
	C288.000000,769.000000 144.500000,769.000000 1.000000,769.000000 
	C1.000000,513.000000 1.000000,257.000000 1.000000,1.000000 
	C257.000000,1.000000 513.000000,1.000000 769.000000,1.000000 
	C769.000000,257.000000 769.000000,513.000000 769.000000,769.000000 
	C656.833313,769.000000 544.666687,769.000000 432.000000,769.000000 
M443.644958,709.943726 
	C443.234833,710.602722 442.824738,711.261658 442.451965,711.924377 
	C442.451965,711.924377 442.469788,711.889648 441.761780,711.628235 
	C440.471436,711.744446 439.181091,711.860657 437.230286,711.990234 
	C430.661133,711.491577 424.091980,710.992859 417.107697,710.073120 
	C416.970093,709.932068 416.832458,709.790955 416.496185,708.992615 
	C414.858948,708.899231 411.846802,708.516663 411.796295,708.757019 
	C411.266205,711.277344 411.210083,713.897461 411.108765,715.300720 
	C413.556488,715.183105 415.576294,714.446411 416.537720,715.151917 
	C420.444427,718.018616 423.949432,717.501099 426.276550,712.775513 
	C426.893188,714.288452 427.375275,715.471252 427.677094,716.211853 
	C429.145050,714.894226 430.260651,713.077881 431.623535,712.868042 
	C433.483154,712.581787 436.315430,712.664673 435.418488,716.199707 
	C436.300323,716.401672 437.182159,716.603577 438.796661,717.011292 
	C439.810638,716.983704 440.824646,716.956116 442.593231,716.975525 
	C443.096802,716.967590 443.600372,716.959717 444.704224,716.991028 
	C445.104431,716.980957 445.504669,716.970886 446.586151,717.247864 
	C448.259613,717.115845 449.933075,716.983765 451.606537,716.851746 
	C451.340942,715.880371 451.075317,714.908936 450.901337,713.254517 
	C451.147736,709.977844 449.317047,710.254028 446.587402,711.021729 
	C446.392853,711.014465 446.198273,711.007263 445.593750,710.620728 
	C445.384033,710.313721 445.174316,710.006714 444.845367,709.477478 
	C444.655914,709.277527 444.437439,709.246033 443.644958,709.943726 
M340.850037,711.984497 
	C341.906799,713.312866 342.963562,714.641174 344.624756,716.514832 
	C347.399872,716.646851 350.255127,717.221619 352.919159,716.739746 
	C354.441742,716.464233 356.355682,714.666260 356.773987,713.182007 
	C357.088013,712.067932 355.452515,709.264160 354.418457,709.119629 
	C351.025909,708.645569 347.511780,709.041504 343.374512,709.188049 
	C342.300690,709.480225 341.226837,709.772461 339.474152,710.099915 
	C334.964996,711.442810 336.794098,714.718628 337.720520,717.780762 
	C338.533295,715.820801 339.346069,713.860840 340.850037,711.984497 
M310.009155,716.574524 
	C310.351349,716.386230 310.693512,716.197937 311.227661,715.339294 
	C312.459564,714.402588 313.691467,713.465881 315.635681,712.909668 
	C315.960114,714.157715 316.284576,715.405762 316.422852,715.937622 
	C320.376862,716.246948 323.903687,716.408752 327.399445,716.829163 
	C330.723755,717.228943 332.881744,716.488464 332.812714,712.059753 
	C331.202789,712.152527 329.788818,712.233948 327.874207,711.903015 
	C327.692596,711.785645 327.511017,711.668335 327.522034,710.899292 
	C328.876892,710.575623 330.231750,710.252014 331.586578,709.928345 
	C331.504608,709.407471 331.422607,708.886597 331.340637,708.365662 
	C327.693604,708.797058 324.046600,709.228394 321.203522,709.564697 
	C318.450684,709.342773 316.355743,709.173950 313.485077,708.485229 
	C311.143829,707.784851 309.480072,708.090515 309.624176,711.083618 
	C309.703857,712.738708 309.782288,714.393799 310.009155,716.574524 
M467.055145,714.340942 
	C467.816254,715.266052 468.656555,717.013123 469.322388,716.948975 
	C470.808350,716.805786 472.207306,715.758789 473.885254,714.964783 
	C471.691956,713.454651 469.942139,712.249756 467.901581,710.844788 
	C469.050018,710.230652 469.906097,709.772827 470.762207,709.315063 
	C470.653748,708.925842 470.545288,708.536682 470.436829,708.147522 
	C469.122162,708.510681 467.807526,708.873840 466.492920,709.237000 
	C467.134796,710.661194 467.776672,712.085327 468.061157,713.921570 
	C467.941833,714.058777 467.822510,714.195923 467.055145,714.340942 
M391.342133,709.133667 
	C389.818909,708.733032 388.295654,708.332458 386.465088,707.851013 
	C386.465088,711.358826 386.465088,714.002258 386.465088,716.868835 
	C388.481293,716.868835 390.089874,716.868835 392.481384,716.916382 
	C392.742584,716.905151 393.003815,716.893860 393.964508,716.740295 
	C395.506836,715.177734 396.317535,711.509705 399.545929,715.161255 
	C400.411499,716.140259 402.278931,716.499878 403.713287,716.566467 
	C404.220459,716.589966 405.383148,714.792114 405.243988,714.002441 
	C404.903748,712.071777 404.170532,708.758118 403.254608,708.639771 
	C399.820435,708.196228 396.249695,708.809875 392.354279,709.200745 
	C392.039886,709.457825 391.725494,709.714905 391.342133,709.133667 
M365.313049,708.908020 
	C360.558136,706.637817 360.376648,709.143311 360.044220,713.111633 
	C359.801422,716.010010 360.900024,717.131348 362.886963,716.822327 
	C364.058472,716.640076 364.921417,714.342407 365.877258,712.964294 
	C366.313721,712.335083 366.639404,711.629028 367.147766,711.685913 
	C367.965485,713.515930 368.783203,715.345947 369.968933,717.999695 
	C371.490906,715.468628 372.429413,713.907898 372.648193,713.544067 
	C375.037506,714.797485 377.024902,716.473816 379.175476,716.719055 
	C380.372986,716.855652 381.842255,714.609192 383.189026,713.436707 
	C382.802185,712.872009 382.415314,712.307312 382.028473,711.742615 
	C380.186096,712.400696 378.343719,713.058777 376.501343,713.716858 
	C376.274689,713.291565 376.048035,712.866272 375.821381,712.440979 
	C377.656586,711.466370 379.491791,710.491699 381.274261,709.545105 
	C377.467163,707.375488 372.698059,708.324219 370.275391,711.186401 
	C368.790131,710.451721 367.421295,709.774597 365.313049,708.908020 
M334.912750,731.981323 
	C335.014832,732.952515 335.183075,733.922119 335.207703,734.895264 
	C335.322784,739.440186 337.601868,742.216675 342.142303,742.271301 
	C344.863281,742.304077 349.973083,743.635193 346.957703,737.447266 
	C346.946167,737.423645 348.015991,737.089355 348.125732,736.752136 
	C348.562134,735.410828 349.402740,733.826233 349.036713,732.664978 
	C347.641846,728.239929 342.208649,727.046814 337.879517,729.861572 
	C336.664948,730.651306 335.185028,731.032959 334.120819,730.771179 
	C334.814575,728.982483 335.508331,727.193848 336.457916,724.745605 
	C328.592682,724.756042 331.017792,733.019836 326.864502,735.057495 
	C323.297699,732.231018 325.239288,724.603088 317.039032,724.604248 
	C319.557648,730.499817 321.513519,735.417725 323.804688,740.174133 
	C324.303192,741.208984 325.970490,742.152100 327.158875,742.229980 
	C328.064484,742.289368 329.423126,741.109436 329.953735,740.138489 
	C331.461761,737.378967 332.648956,734.444153 334.912750,731.981323 
M391.651611,732.979065 
	C389.012909,725.634521 388.211182,725.261292 379.113708,727.573120 
	C377.541046,728.874939 375.968353,730.176697 374.377502,730.627808 
	C368.976715,725.554382 368.976715,725.554382 364.274017,730.686707 
	C359.285065,727.554443 354.234375,727.898865 351.929535,731.528564 
	C349.913452,734.703552 350.882538,739.187012 354.027252,741.233948 
	C357.511566,743.501892 361.616180,742.576660 364.864075,737.838806 
	C362.475403,738.116882 360.937286,738.490112 359.423218,738.409851 
	C358.240204,738.347168 356.640106,738.053894 356.045288,737.253662 
	C355.440735,736.440186 355.373016,734.565613 355.931824,733.736450 
	C356.486542,732.913391 358.092804,732.574951 359.278107,732.467285 
	C360.349060,732.370056 361.779602,733.427917 362.525818,733.018433 
	C367.074432,730.522156 366.986023,733.345276 367.084808,736.561035 
	C367.226013,741.157227 369.467651,743.177673 373.147186,742.258972 
	C373.838196,742.086426 374.783417,741.525269 374.926270,740.967834 
	C375.063354,740.433044 374.466431,739.477417 373.923737,739.038391 
	C370.039856,735.897217 370.144409,733.852051 375.156769,731.782349 
	C377.510864,741.529358 379.260803,743.051270 386.933167,742.074402 
	C387.753082,741.969971 388.590790,742.004822 389.018921,742.510071 
	C390.152557,743.998779 391.286163,745.487427 392.419800,746.976135 
	C391.730225,745.779602 391.040619,744.583069 390.351013,743.386536 
	C392.763458,742.602478 397.328064,741.440552 397.266632,741.090759 
	C396.292114,735.539062 400.293457,732.697327 403.081970,730.026184 
	C406.043243,732.552979 409.004547,735.079773 413.133759,738.603149 
	C409.415070,738.312744 406.728577,738.102905 402.438416,737.767822 
	C403.774628,739.590332 404.332672,741.166199 405.392731,741.656311 
	C409.976654,743.775635 414.240204,742.175537 417.754578,737.489258 
	C423.501862,743.453308 427.553833,744.119324 432.139496,739.036682 
	C429.107880,738.717285 426.661011,738.459412 424.214142,738.201599 
	C424.253571,737.814636 424.292999,737.427734 424.332458,737.040771 
	C427.047852,736.861877 429.763245,736.682983 432.809631,736.482300 
	C432.937805,732.486572 431.841156,729.688416 427.934570,728.670593 
	C424.324799,727.730103 421.401123,728.733704 419.330566,731.962036 
	C418.588196,733.119507 417.721588,734.197266 416.749329,734.607849 
	C413.757599,732.937378 410.765900,731.266907 407.774170,729.596375 
	C407.858948,729.122986 407.943726,728.649597 408.028473,728.176270 
	C409.944214,728.310852 411.870392,728.617493 413.770996,728.502075 
	C414.627655,728.450073 415.433197,727.556519 416.261902,727.044678 
	C415.781982,726.323669 415.468292,725.289490 414.795288,724.932251 
	C410.325684,722.559998 405.222137,724.518982 402.295349,729.109253 
	C399.488770,729.109253 396.682190,729.109253 394.031799,729.109253 
	C393.265198,730.742798 392.553375,732.259766 391.651611,732.979065 
M482.435516,733.113525 
	C481.135651,732.529053 479.843292,731.473328 478.534424,731.452454 
	C475.187622,731.399109 472.854980,733.065002 472.587830,736.644470 
	C472.362274,739.666504 473.189270,742.157715 476.590363,743.057495 
	C479.998566,743.959167 482.239319,742.992676 483.720642,739.718872 
	C485.552704,740.914856 487.607025,743.320312 489.166626,743.033691 
	C491.743866,742.560059 494.001892,740.349487 496.262756,738.952148 
	C496.619141,740.059875 497.190887,741.836975 497.762634,743.614014 
	C498.284271,743.545044 498.805939,743.476013 499.327576,743.406982 
	C499.497650,741.544678 499.448425,739.623962 499.922272,737.842468 
	C500.194580,736.818481 501.314423,736.019897 502.052734,735.119812 
	C502.672729,735.985168 503.586304,736.773071 503.839752,737.735046 
	C504.169922,738.987915 503.826416,740.407532 504.073914,741.697632 
	C504.190308,742.304443 505.009949,742.776367 505.510925,743.309387 
	C506.008148,742.764771 506.725952,742.295715 506.945068,741.655823 
	C507.201263,740.907593 506.787964,739.913452 507.083405,739.198975 
	C507.633728,737.868286 508.486847,736.662842 509.213928,735.405334 
	C509.776550,736.632019 510.450653,737.821716 510.872437,739.095032 
	C511.352509,740.544434 511.607330,742.068359 511.960114,743.559875 
	C512.616333,743.443909 513.272583,743.327942 513.928833,743.211975 
	C513.928833,740.789551 514.471497,738.187622 513.749146,736.004150 
	C513.215576,734.391235 511.153503,732.401245 509.561646,732.193359 
	C505.448700,731.656372 501.218964,732.013428 497.229309,732.013428 
	C496.694916,733.752930 496.348541,734.880493 495.741241,736.857300 
	C493.396545,731.997864 490.351593,730.514709 486.048950,732.482971 
	C485.088593,732.922241 484.054504,733.200378 482.435516,733.113525 
M578.950684,434.500000 
	C578.906860,414.173370 578.840332,393.846771 578.833069,373.520142 
	C578.830933,367.521698 582.057983,364.208923 587.898315,363.972595 
	C594.410828,363.709076 597.485535,367.195038 597.489197,374.962341 
	C597.501648,401.288452 597.475159,427.614532 597.500427,453.940643 
	C597.505798,459.567505 599.048584,461.104431 604.586060,461.153625 
	C610.417419,461.205444 616.249634,461.198639 622.081238,461.169006 
	C628.169556,461.138092 629.829651,459.527771 629.843323,453.508270 
	C629.911377,423.683563 630.004944,393.858734 629.976257,364.034058 
	C629.958374,345.420227 610.866028,328.564392 592.594177,331.872192 
	C585.740723,333.112915 579.400879,337.190674 572.139099,340.266266 
	C559.397827,329.961273 544.845398,328.441620 529.100281,338.441223 
	C527.868652,332.874084 523.707886,332.371185 519.065613,332.504120 
	C514.404175,332.637695 509.735504,332.501648 505.070251,332.525543 
	C497.633942,332.563660 496.302032,333.880951 496.299286,341.257721 
	C496.286713,375.415344 496.288422,409.572937 496.285370,443.730560 
	C496.285034,447.396240 496.234039,451.062927 496.302277,454.727356 
	C496.379150,458.854736 498.148773,461.282166 502.684174,461.186127 
	C508.345215,461.066254 514.011047,461.194214 519.674561,461.166718 
	C527.445923,461.128967 528.692505,459.901276 528.695984,452.226715 
	C528.708069,425.733734 528.686829,399.240753 528.706787,372.747772 
	C528.711609,366.354065 532.188416,363.193756 538.393066,363.805420 
	C544.082397,364.366333 546.523804,367.072601 546.530579,373.025116 
	C546.561035,399.684662 546.551270,426.344238 546.577515,453.003784 
	C546.584167,459.738861 548.017883,461.142761 554.830994,461.169434 
	C560.662659,461.192261 566.495850,461.077240 572.325867,461.175110 
	C576.970825,461.253052 579.015747,459.054138 578.964172,454.494720 
	C578.892517,448.163879 578.948975,441.831635 578.950684,434.500000 
M280.380646,333.108185 
	C269.714844,333.102325 259.048431,333.160797 248.383545,333.059357 
	C244.053925,333.018188 241.929321,334.529907 242.186401,339.238892 
	C242.494827,344.888336 242.225830,350.567596 242.280426,356.233185 
	C242.333038,361.692413 243.659805,363.051270 249.088776,363.087311 
	C257.754395,363.144836 266.423126,363.229706 275.085571,363.055725 
	C279.059052,362.975952 280.583160,365.050262 280.650208,368.481689 
	C280.719330,372.020905 279.436554,374.696381 275.201874,374.655975 
	C270.536194,374.611420 265.856750,374.869232 261.205994,374.601349 
	C242.676575,373.534119 231.950134,386.362518 230.472427,400.383881 
	C229.137848,413.047180 229.167007,426.032990 230.287308,438.727203 
	C231.472626,452.157959 243.058884,461.156921 256.605957,461.181213 
	C271.104797,461.207184 285.603912,461.203430 300.102661,461.151825 
	C309.034332,461.120056 313.615875,456.499298 313.621490,447.587280 
	C313.638458,420.589264 313.649109,393.591217 313.626190,366.593231 
	C313.607910,345.032166 303.044525,334.096832 280.380646,333.108185 
M335.848419,412.668243 
	C340.964813,414.924133 345.894867,418.050415 351.248840,419.196350 
	C356.842102,420.393555 362.843079,419.762054 368.666290,419.780579 
	C372.228027,419.791901 375.124146,420.490753 375.063354,424.831024 
	C375.004425,429.038269 372.232666,429.967346 368.626007,429.948517 
	C358.964264,429.898163 349.301208,430.020233 339.640411,429.914673 
	C335.842438,429.873199 334.085480,431.503479 334.097504,435.250183 
	C334.119995,442.246674 334.148315,449.243774 334.082764,456.239746 
	C334.045471,460.220154 335.822021,461.935791 339.857849,461.891083 
	C350.518036,461.772919 361.186981,462.099304 371.840607,461.811096 
	C393.546417,461.223816 406.344910,448.911743 406.747040,426.989105 
	C407.290771,397.346588 406.882202,367.687012 406.944550,338.034851 
	C406.952087,334.448578 405.458801,332.866058 401.858002,332.917480 
	C395.195984,333.012604 388.531586,332.932678 381.868225,332.949188 
	C375.627502,332.964661 374.898071,333.656189 374.885651,339.772583 
	C374.860992,351.933411 374.904449,364.094391 374.872650,376.255157 
	C374.837524,389.698914 376.118774,387.810425 363.101074,387.921692 
	C356.786682,387.975677 356.182281,387.345245 356.172119,381.153076 
	C356.149414,367.326385 356.187775,353.499481 356.133636,339.672943 
	C356.110718,333.814575 355.224396,332.976532 349.515411,332.956055 
	C343.351776,332.933929 337.188019,332.942719 331.024292,332.953339 
	C324.703766,332.964264 324.140320,333.457581 324.125580,339.730591 
	C324.088043,355.722870 324.228363,371.716309 324.080139,387.707275 
	C323.987305,397.719849 327.693512,405.811798 335.848419,412.668243 
M140.335693,350.511169 
	C140.220154,385.331329 140.164963,420.151886 139.919037,454.971130 
	C139.885147,459.769073 141.688187,461.625580 146.377396,461.467468 
	C152.202606,461.271027 158.038803,461.406464 163.870209,461.386139 
	C171.968033,461.357941 172.076569,461.247925 172.077408,453.372620 
	C172.078461,443.596008 172.077667,433.819397 172.077667,423.631378 
	C179.358505,423.631378 185.998505,423.702850 192.636490,423.617249 
	C209.052368,423.405640 220.746109,413.915833 222.133240,397.683685 
	C223.261536,384.480560 223.065369,371.030273 221.992111,357.808472 
	C220.782242,342.903778 210.832809,333.698914 195.959518,333.144226 
	C179.320740,332.523743 162.642090,332.961517 145.980789,332.962921 
	C142.324707,332.963196 140.428329,334.902496 140.357407,338.520386 
	C140.285583,342.184570 140.337372,345.851227 140.335693,350.511169 
M468.242462,367.533356 
	C469.348022,366.699005 470.365265,365.349670 471.578247,365.141571 
	C473.842438,364.753143 476.220642,365.048676 478.550934,365.022339 
	C484.291168,364.957458 485.435059,363.785492 485.479553,357.897247 
	C485.505951,354.401520 485.485596,350.905457 485.487000,347.409546 
	C485.492371,333.995178 485.496826,333.887604 471.986603,333.339996 
	C468.728729,333.207977 468.118622,331.899811 468.251862,329.049713 
	C468.469360,324.397949 468.679840,319.701385 468.250885,315.083405 
	C468.048889,312.909241 466.818573,309.714905 465.216644,309.072906 
	C463.276978,308.295593 459.879944,308.998230 458.130646,310.363556 
	C454.771484,312.985321 451.922455,316.359833 449.230927,319.717957 
	C442.844788,327.685638 435.621582,333.792877 424.556732,333.376984 
	C421.078003,333.246216 419.063629,335.322937 419.089478,339.059357 
	C419.135529,345.717896 419.155365,352.377594 419.082977,359.035675 
	C419.037231,363.242218 421.035797,365.133087 425.183716,365.053162 
	C428.937073,364.980804 432.692963,365.037872 436.899292,365.037872 
	C436.899292,367.917267 436.899292,370.049530 436.899292,372.181824 
	C436.899261,399.649719 436.892853,427.117584 436.904083,454.585480 
	C436.906586,460.709595 437.813110,461.654633 443.724030,461.691620 
	C449.716766,461.729095 455.714661,461.554260 461.701416,461.747009 
	C466.348480,461.896576 468.432007,459.981781 468.415985,455.298706 
	C468.316833,426.334045 468.299591,397.369110 468.242462,367.533356 
M293.910828,716.353455 
	C297.756134,716.612305 301.601440,716.871216 305.586670,717.139526 
	C305.586670,713.779175 305.586670,711.251160 305.586670,708.365479 
	C299.952606,713.887878 293.117004,708.864868 287.467957,711.493469 
	C287.100830,710.490845 286.733704,709.488220 286.526398,708.922119 
	C276.312164,713.292480 266.619659,711.855713 257.169861,707.557495 
	C255.373398,714.776733 256.746490,717.365295 261.077026,716.880005 
	C264.658905,716.478516 268.482544,717.330383 271.878387,716.424683 
	C275.345306,715.499939 280.246613,718.956543 282.091461,712.857422 
	C283.807953,717.166504 287.575470,718.221619 293.910828,716.353455 
M464.477753,742.073730 
	C463.110291,739.570862 461.742828,737.067993 460.295959,734.419861 
	C461.632172,732.740906 463.006805,731.013794 464.381439,729.286621 
	C464.112762,728.902527 463.844086,728.518494 463.575409,728.134399 
	C460.807892,729.432861 458.040375,730.731323 455.083588,732.118591 
	C454.925446,729.354492 454.777832,726.773865 454.630188,724.193237 
	C454.232269,723.877136 453.834351,723.561096 453.436432,723.245056 
	C452.470551,724.205322 450.723358,725.124023 450.669647,726.132874 
	C450.389099,731.400269 450.538757,736.690674 450.538757,741.973022 
	C451.032288,742.277954 451.525787,742.582886 452.019318,742.887756 
	C453.485138,741.389526 454.950989,739.891296 456.072388,738.745117 
	C458.561188,739.892639 461.199921,741.109314 464.477753,742.073730 
M433.994934,735.497131 
	C435.696594,742.675598 441.566406,744.756409 448.106110,739.378784 
	C444.700653,738.821716 442.072906,738.391846 439.445129,737.961975 
	C439.506897,737.626282 439.568634,737.290588 439.630371,736.954895 
	C442.521393,736.827148 445.412415,736.699341 448.414520,736.566650 
	C448.525574,731.534546 446.367188,728.809937 442.150879,728.428711 
	C437.829224,728.037903 434.765564,730.055664 433.994934,735.497131 
M311.482025,741.861938 
	C312.516571,738.789429 313.551117,735.716980 314.585663,732.644531 
	C314.098175,732.308350 313.610687,731.972168 313.123199,731.635986 
	C311.664337,733.221252 310.205444,734.806519 308.865997,736.262024 
	C307.802490,734.838318 306.789001,733.481567 305.775482,732.124817 
	C304.371735,733.655457 302.967987,735.186096 301.810547,736.448181 
	C300.567841,735.051636 299.123077,733.428040 297.678345,731.804504 
	C297.266632,732.173889 296.854919,732.543274 296.443237,732.912659 
	C297.063110,734.777405 297.488647,736.739136 298.357300,738.479736 
	C299.234741,740.237976 300.551422,741.776978 301.675690,743.412048 
	C303.041229,742.144897 304.406738,740.877808 305.829468,739.557617 
	C306.919373,741.665283 307.318634,745.274780 311.482025,741.861938 
M279.166931,732.294678 
	C278.346588,732.986755 276.837982,733.690247 276.849213,734.368591 
	C276.872620,735.781189 277.518463,737.283691 278.242340,738.559875 
	C279.213837,740.272461 280.501221,741.805847 281.652985,743.416199 
	C282.995178,742.182251 284.337372,740.948242 285.393707,739.977112 
	C286.361328,740.923218 287.517853,742.319580 288.966431,743.271484 
	C289.300903,743.491211 291.110779,742.371948 291.423981,741.555298 
	C292.570129,738.566650 293.371094,735.445679 294.302063,732.374512 
	C293.840332,732.109802 293.378601,731.845154 292.916901,731.580444 
	C291.545044,733.194275 290.173187,734.808167 289.011566,736.174744 
	C287.598999,734.815002 286.205444,733.473572 284.811890,732.132202 
	C283.767059,733.776184 282.722198,735.420105 281.433472,737.447754 
	C280.727295,735.597534 280.200531,734.217346 279.166931,732.294678 
M262.907715,743.201477 
	C263.700836,742.082275 264.493988,740.963074 264.905090,740.382996 
	C266.548859,741.512939 267.880096,743.097168 269.244720,743.126465 
	C270.126678,743.145386 271.324829,741.000854 271.906799,739.625122 
	C272.894623,737.289917 273.507904,734.796265 274.278595,732.369202 
	C273.812592,732.102966 273.346588,731.836670 272.880585,731.570374 
	C271.475464,733.176392 270.070374,734.782349 268.865295,736.159668 
	C267.461578,734.811157 266.054657,733.459595 264.647766,732.108032 
	C263.625702,733.757568 262.603668,735.407104 261.731079,736.815430 
	C260.217468,735.004028 258.854950,733.373413 257.492432,731.742859 
	C257.030365,732.089172 256.568268,732.435486 256.106171,732.781738 
	C256.901917,735.094360 257.440216,737.545166 258.581940,739.671936 
	C259.372437,741.144653 260.995178,742.170532 262.907715,743.201477 
M485.112854,719.595093 
	C487.082611,718.101685 488.502136,715.548706 491.858948,717.089844 
	C492.552429,717.408203 494.326935,715.371948 495.603149,714.420898 
	C494.518463,713.094666 493.604126,711.554382 492.293945,710.511353 
	C491.286682,709.709534 489.781128,709.533508 489.034821,709.269470 
	C486.661591,709.855042 484.547913,710.474731 482.393951,710.880676 
	C480.190155,711.295959 477.946899,711.501709 475.323547,711.852356 
	C478.299530,714.465759 481.340149,717.135925 485.112854,719.595093 
M460.447083,710.559631 
	C458.735260,710.055603 457.023438,709.551514 455.119812,708.990967 
	C455.119812,711.373474 455.119812,713.955322 455.119812,718.017334 
	C457.628540,716.311768 459.272675,715.194031 460.895233,714.090881 
	C461.083069,714.531677 461.553009,715.634583 462.435516,717.705566 
	C463.503876,714.272827 464.493958,711.983337 460.447083,710.559631 
M510.628540,710.486023 
	C509.241302,710.624207 507.854034,710.762390 506.053802,710.941772 
	C506.558350,713.232117 507.181946,716.063110 507.845856,719.076843 
	C515.437683,714.523010 515.687073,713.833679 510.628540,710.486023 
M499.107422,715.366028 
	C500.336243,715.786682 501.565063,716.207336 503.986969,717.036377 
	C502.401398,714.784180 501.678192,713.756958 500.903168,712.656067 
	C500.320740,713.643738 499.908447,714.342834 499.107422,715.366028 
z"/>
<path fill="#05A1C7" opacity="1.000000" stroke="none" 
	d="
M578.950684,435.000000 
	C578.948975,441.831635 578.892517,448.163879 578.964172,454.494720 
	C579.015747,459.054138 576.970825,461.253052 572.325867,461.175110 
	C566.495850,461.077240 560.662659,461.192261 554.830994,461.169434 
	C548.017883,461.142761 546.584167,459.738861 546.577515,453.003784 
	C546.551270,426.344238 546.561035,399.684662 546.530579,373.025116 
	C546.523804,367.072601 544.082397,364.366333 538.393066,363.805420 
	C532.188416,363.193756 528.711609,366.354065 528.706787,372.747772 
	C528.686829,399.240753 528.708069,425.733734 528.695984,452.226715 
	C528.692505,459.901276 527.445923,461.128967 519.674561,461.166718 
	C514.011047,461.194214 508.345215,461.066254 502.684174,461.186127 
	C498.148773,461.282166 496.379150,458.854736 496.302277,454.727356 
	C496.234039,451.062927 496.285034,447.396240 496.285370,443.730560 
	C496.288422,409.572937 496.286713,375.415344 496.299286,341.257721 
	C496.302032,333.880951 497.633942,332.563660 505.070251,332.525543 
	C509.735504,332.501648 514.404175,332.637695 519.065613,332.504120 
	C523.707886,332.371185 527.868652,332.874084 529.100281,338.441223 
	C544.845398,328.441620 559.397827,329.961273 572.139099,340.266266 
	C579.400879,337.190674 585.740723,333.112915 592.594177,331.872192 
	C610.866028,328.564392 629.958374,345.420227 629.976257,364.034058 
	C630.004944,393.858734 629.911377,423.683563 629.843323,453.508270 
	C629.829651,459.527771 628.169556,461.138092 622.081238,461.169006 
	C616.249634,461.198639 610.417419,461.205444 604.586060,461.153625 
	C599.048584,461.104431 597.505798,459.567505 597.500427,453.940643 
	C597.475159,427.614532 597.501648,401.288452 597.489197,374.962341 
	C597.485535,367.195038 594.410828,363.709076 587.898315,363.972595 
	C582.057983,364.208923 578.830933,367.521698 578.833069,373.520142 
	C578.840332,393.846771 578.906860,414.173370 578.950684,435.000000 
z"/>
<path fill="#131278" opacity="1.000000" stroke="none" 
	d="
M280.860779,333.099365 
	C303.044525,334.096832 313.607910,345.032166 313.626190,366.593231 
	C313.649109,393.591217 313.638458,420.589264 313.621490,447.587280 
	C313.615875,456.499298 309.034332,461.120056 300.102661,461.151825 
	C285.603912,461.203430 271.104797,461.207184 256.605957,461.181213 
	C243.058884,461.156921 231.472626,452.157959 230.287308,438.727203 
	C229.167007,426.032990 229.137848,413.047180 230.472427,400.383881 
	C231.950134,386.362518 242.676575,373.534119 261.205994,374.601349 
	C265.856750,374.869232 270.536194,374.611420 275.201874,374.655975 
	C279.436554,374.696381 280.719330,372.020905 280.650208,368.481689 
	C280.583160,365.050262 279.059052,362.975952 275.085571,363.055725 
	C266.423126,363.229706 257.754395,363.144836 249.088776,363.087311 
	C243.659805,363.051270 242.333038,361.692413 242.280426,356.233185 
	C242.225830,350.567596 242.494827,344.888336 242.186401,339.238892 
	C241.929321,334.529907 244.053925,333.018188 248.383545,333.059357 
	C259.048431,333.160797 269.714844,333.102325 280.860779,333.099365 
M265.176086,431.858002 
	C267.661774,431.969086 270.147186,432.168091 272.633179,432.175323 
	C281.310760,432.200562 281.788391,431.711426 281.802460,423.270874 
	C281.805511,421.441040 281.782837,419.610992 281.805206,417.781433 
	C281.975861,403.821106 282.744965,404.423523 267.404236,404.630920 
	C263.636719,404.681854 262.055725,406.748016 262.071259,410.347412 
	C262.094238,415.670441 261.898651,421.003876 262.192719,426.310913 
	C262.290497,428.075409 263.608734,429.772308 265.176086,431.858002 
z"/>
<path fill="#131278" opacity="1.000000" stroke="none" 
	d="
M335.582458,412.431824 
	C327.693512,405.811798 323.987305,397.719849 324.080139,387.707275 
	C324.228363,371.716309 324.088043,355.722870 324.125580,339.730591 
	C324.140320,333.457581 324.703766,332.964264 331.024292,332.953339 
	C337.188019,332.942719 343.351776,332.933929 349.515411,332.956055 
	C355.224396,332.976532 356.110718,333.814575 356.133636,339.672943 
	C356.187775,353.499481 356.149414,367.326385 356.172119,381.153076 
	C356.182281,387.345245 356.786682,387.975677 363.101074,387.921692 
	C376.118774,387.810425 374.837524,389.698914 374.872650,376.255157 
	C374.904449,364.094391 374.860992,351.933411 374.885651,339.772583 
	C374.898071,333.656189 375.627502,332.964661 381.868225,332.949188 
	C388.531586,332.932678 395.195984,333.012604 401.858002,332.917480 
	C405.458801,332.866058 406.952087,334.448578 406.944550,338.034851 
	C406.882202,367.687012 407.290771,397.346588 406.747040,426.989105 
	C406.344910,448.911743 393.546417,461.223816 371.840607,461.811096 
	C361.186981,462.099304 350.518036,461.772919 339.857849,461.891083 
	C335.822021,461.935791 334.045471,460.220154 334.082764,456.239746 
	C334.148315,449.243774 334.119995,442.246674 334.097504,435.250183 
	C334.085480,431.503479 335.842438,429.873199 339.640411,429.914673 
	C349.301208,430.020233 358.964264,429.898163 368.626007,429.948517 
	C372.232666,429.967346 375.004425,429.038269 375.063354,424.831024 
	C375.124146,420.490753 372.228027,419.791901 368.666290,419.780579 
	C362.843079,419.762054 356.842102,420.393555 351.248840,419.196350 
	C345.894867,418.050415 340.964813,414.924133 335.582458,412.431824 
z"/>
<path fill="#121178" opacity="1.000000" stroke="none" 
	d="
M140.335358,350.013977 
	C140.337372,345.851227 140.285583,342.184570 140.357407,338.520386 
	C140.428329,334.902496 142.324707,332.963196 145.980789,332.962921 
	C162.642090,332.961517 179.320740,332.523743 195.959518,333.144226 
	C210.832809,333.698914 220.782242,342.903778 221.992111,357.808472 
	C223.065369,371.030273 223.261536,384.480560 222.133240,397.683685 
	C220.746109,413.915833 209.052368,423.405640 192.636490,423.617249 
	C185.998505,423.702850 179.358505,423.631378 172.077667,423.631378 
	C172.077667,433.819397 172.078461,443.596008 172.077408,453.372620 
	C172.076569,461.247925 171.968033,461.357941 163.870209,461.386139 
	C158.038803,461.406464 152.202606,461.271027 146.377396,461.467468 
	C141.688187,461.625580 139.885147,459.769073 139.919037,454.971130 
	C140.164963,420.151886 140.220154,385.331329 140.335358,350.013977 
M172.179977,382.417542 
	C172.179977,385.340759 172.179977,388.263947 172.179977,391.568604 
	C177.027908,391.568604 181.169525,391.752380 185.286331,391.511597 
	C188.698593,391.312073 190.843384,389.341339 190.896713,385.734283 
	C190.972977,380.574646 191.306107,375.368225 190.718521,370.275360 
	C190.496552,368.351288 188.213638,365.410278 186.528412,365.150543 
	C181.911743,364.439056 177.113556,364.905365 172.179596,364.905365 
	C172.179596,370.801300 172.179596,376.120056 172.179977,382.417542 
z"/>
<path fill="#04A1C7" opacity="1.000000" stroke="none" 
	d="
M468.248779,367.968811 
	C468.299591,397.369110 468.316833,426.334045 468.415985,455.298706 
	C468.432007,459.981781 466.348480,461.896576 461.701416,461.747009 
	C455.714661,461.554260 449.716766,461.729095 443.724030,461.691620 
	C437.813110,461.654633 436.906586,460.709595 436.904083,454.585480 
	C436.892853,427.117584 436.899261,399.649719 436.899292,372.181824 
	C436.899292,370.049530 436.899292,367.917267 436.899292,365.037872 
	C432.692963,365.037872 428.937073,364.980804 425.183716,365.053162 
	C421.035797,365.133087 419.037231,363.242218 419.082977,359.035675 
	C419.155365,352.377594 419.135529,345.717896 419.089478,339.059357 
	C419.063629,335.322937 421.078003,333.246216 424.556732,333.376984 
	C435.621582,333.792877 442.844788,327.685638 449.230927,319.717957 
	C451.922455,316.359833 454.771484,312.985321 458.130646,310.363556 
	C459.879944,308.998230 463.276978,308.295593 465.216644,309.072906 
	C466.818573,309.714905 468.048889,312.909241 468.250885,315.083405 
	C468.679840,319.701385 468.469360,324.397949 468.251862,329.049713 
	C468.118622,331.899811 468.728729,333.207977 471.986603,333.339996 
	C485.496826,333.887604 485.492371,333.995178 485.487000,347.409546 
	C485.485596,350.905457 485.505951,354.401520 485.479553,357.897247 
	C485.435059,363.785492 484.291168,364.957458 478.550934,365.022339 
	C476.220642,365.048676 473.842438,364.753143 471.578247,365.141571 
	C470.365265,365.349670 469.348022,366.699005 468.248779,367.968811 
z"/>
<path fill="#A2A2A2" opacity="1.000000" stroke="none" 
	d="
M293.522034,716.379333 
	C287.575470,718.221619 283.807953,717.166504 282.091461,712.857422 
	C280.246613,718.956543 275.345306,715.499939 271.878387,716.424683 
	C268.482544,717.330383 264.658905,716.478516 261.077026,716.880005 
	C256.746490,717.365295 255.373398,714.776733 257.169861,707.557495 
	C266.619659,711.855713 276.312164,713.292480 286.526398,708.922119 
	C286.733704,709.488220 287.100830,710.490845 287.469177,711.493225 
	C293.117004,708.864868 299.952606,713.887878 305.586670,708.365479 
	C305.586670,711.251160 305.586670,713.779175 305.586670,717.139526 
	C301.601440,716.871216 297.756134,716.612305 293.522034,716.379333 
z"/>
<path fill="#707070" opacity="1.000000" stroke="none" 
	d="
M483.054382,733.552734 
	C484.054504,733.200378 485.088593,732.922241 486.048950,732.482971 
	C490.351593,730.514709 493.396545,731.997864 495.741241,736.857300 
	C496.348541,734.880493 496.694916,733.752930 497.229309,732.013428 
	C501.218964,732.013428 505.448700,731.656372 509.561646,732.193359 
	C511.153503,732.401245 513.215576,734.391235 513.749146,736.004150 
	C514.471497,738.187622 513.928833,740.789551 513.928833,743.211975 
	C513.272583,743.327942 512.616333,743.443909 511.960114,743.559875 
	C511.607330,742.068359 511.352509,740.544434 510.872437,739.095032 
	C510.450653,737.821716 509.776550,736.632019 509.213928,735.405334 
	C508.486847,736.662842 507.633728,737.868286 507.083405,739.198975 
	C506.787964,739.913452 507.201263,740.907593 506.945068,741.655823 
	C506.725952,742.295715 506.008148,742.764771 505.510925,743.309387 
	C505.009949,742.776367 504.190308,742.304443 504.073914,741.697632 
	C503.826416,740.407532 504.169922,738.987915 503.839752,737.735046 
	C503.586304,736.773071 502.672729,735.985168 502.052734,735.119812 
	C501.314423,736.019897 500.194580,736.818481 499.922272,737.842468 
	C499.448425,739.623962 499.497650,741.544678 499.327576,743.406982 
	C498.805939,743.476013 498.284271,743.545044 497.762634,743.614014 
	C497.190887,741.836975 496.619141,740.059875 496.262756,738.952148 
	C494.001892,740.349487 491.743866,742.560059 489.166626,743.033691 
	C487.607025,743.320312 485.552704,740.914856 483.375366,739.586243 
	C483.030090,739.453613 483.041901,739.509644 483.187622,739.005615 
	C483.230560,736.819336 483.127808,735.137146 483.026917,733.480957 
	C483.028748,733.507080 483.054382,733.552734 483.054382,733.552734 
M490.174347,734.724976 
	C487.152222,734.223328 486.046783,735.877563 486.782593,738.416260 
	C487.045044,739.321777 488.992188,739.739014 490.170380,740.379089 
	C490.380066,738.604797 490.589752,736.830505 490.174347,734.724976 
z"/>
<path fill="#707070" opacity="1.000000" stroke="none" 
	d="
M374.411560,731.415955 
	C370.144409,733.852051 370.039856,735.897217 373.923737,739.038391 
	C374.466431,739.477417 375.063354,740.433044 374.926270,740.967834 
	C374.783417,741.525269 373.838196,742.086426 373.147186,742.258972 
	C369.467651,743.177673 367.226013,741.157227 367.084808,736.561035 
	C366.986023,733.345276 367.074432,730.522156 362.525818,733.018433 
	C361.779602,733.427917 360.349060,732.370056 359.278107,732.467285 
	C358.092804,732.574951 356.486542,732.913391 355.931824,733.736450 
	C355.373016,734.565613 355.440735,736.440186 356.045288,737.253662 
	C356.640106,738.053894 358.240204,738.347168 359.423218,738.409851 
	C360.937286,738.490112 362.475403,738.116882 364.864075,737.838806 
	C361.616180,742.576660 357.511566,743.501892 354.027252,741.233948 
	C350.882538,739.187012 349.913452,734.703552 351.929535,731.528564 
	C354.234375,727.898865 359.285065,727.554443 364.274017,730.686707 
	C368.976715,725.554382 368.976715,725.554382 374.350403,731.025391 
	C374.323334,731.422974 374.411560,731.415955 374.411560,731.415955 
z"/>
<path fill="#707070" opacity="1.000000" stroke="none" 
	d="
M464.158203,742.199829 
	C461.199921,741.109314 458.561188,739.892639 456.072388,738.745117 
	C454.950989,739.891296 453.485138,741.389526 452.019318,742.887756 
	C451.525787,742.582886 451.032288,742.277954 450.538757,741.973022 
	C450.538757,736.690674 450.389099,731.400269 450.669647,726.132874 
	C450.723358,725.124023 452.470551,724.205322 453.436432,723.245056 
	C453.834351,723.561096 454.232269,723.877136 454.630188,724.193237 
	C454.777832,726.773865 454.925446,729.354492 455.083588,732.118591 
	C458.040375,730.731323 460.807892,729.432861 463.575409,728.134399 
	C463.844086,728.518494 464.112762,728.902527 464.381439,729.286621 
	C463.006805,731.013794 461.632172,732.740906 460.295959,734.419861 
	C461.742828,737.067993 463.110291,739.570862 464.158203,742.199829 
z"/>
<path fill="#707070" opacity="1.000000" stroke="none" 
	d="
M403.066406,729.307129 
	C405.222137,724.518982 410.325684,722.559998 414.795288,724.932251 
	C415.468292,725.289490 415.781982,726.323669 416.261932,727.044678 
	C415.433197,727.556519 414.627655,728.450073 413.770996,728.502075 
	C411.870392,728.617493 409.944214,728.310852 408.028473,728.176270 
	C407.943726,728.649597 407.858948,729.122986 407.774170,729.596375 
	C410.765900,731.266907 413.757599,732.937378 416.844849,735.250977 
	C416.951508,736.477722 416.962646,737.061401 416.973785,737.645020 
	C414.240204,742.175537 409.976654,743.775635 405.392731,741.656311 
	C404.332672,741.166199 403.774628,739.590332 402.438416,737.767822 
	C406.728577,738.102905 409.415070,738.312744 413.133759,738.603149 
	C409.004547,735.079773 406.043243,732.552979 403.084656,729.643677 
	C403.087372,729.261230 403.066406,729.307129 403.066406,729.307129 
z"/>
<path fill="#F17145" opacity="1.000000" stroke="none" 
	d="
M374.784180,731.599121 
	C374.411560,731.415955 374.323334,731.422974 374.359497,731.450684 
	C375.968353,730.176697 377.541046,728.874939 379.113708,727.573120 
	C388.211182,725.261292 389.012909,725.634521 391.841187,733.727295 
	C391.160583,736.975403 390.290405,739.475281 389.420227,741.975098 
	C388.590790,742.004822 387.753082,741.969971 386.933167,742.074402 
	C379.260803,743.051270 377.510864,741.529358 374.784180,731.599121 
M388.151062,733.329163 
	C387.287231,729.130859 383.860748,731.616394 381.663666,731.003235 
	C381.129791,730.854248 379.358978,732.582336 379.498260,732.998596 
	C380.294586,735.378540 381.353424,737.716736 382.726044,739.804138 
	C382.914398,740.090576 385.718384,739.255066 386.636688,738.294189 
	C387.546143,737.342651 387.601990,735.575317 388.151062,733.329163 
z"/>
<path fill="#707070" opacity="1.000000" stroke="none" 
	d="
M333.962463,731.578308 
	C332.648956,734.444153 331.461761,737.378967 329.953735,740.138489 
	C329.423126,741.109436 328.064484,742.289368 327.158875,742.229980 
	C325.970490,742.152100 324.303192,741.208984 323.804688,740.174133 
	C321.513519,735.417725 319.557648,730.499817 317.039032,724.604248 
	C325.239288,724.603088 323.297699,732.231018 326.864502,735.057495 
	C331.017792,733.019836 328.592682,724.756042 336.457916,724.745605 
	C335.508331,727.193848 334.814575,728.982483 334.003052,731.186218 
	C333.885315,731.601257 333.962463,731.578308 333.962463,731.578308 
z"/>
<path fill="#767676" opacity="1.000000" stroke="none" 
	d="
M417.364197,737.567139 
	C416.962646,737.061401 416.951508,736.477722 416.926025,735.602722 
	C417.721588,734.197266 418.588196,733.119507 419.330566,731.962036 
	C421.401123,728.733704 424.324799,727.730103 427.934570,728.670593 
	C431.841156,729.688416 432.937805,732.486572 432.809631,736.482300 
	C429.763245,736.682983 427.047852,736.861877 424.332458,737.040771 
	C424.292999,737.427734 424.253571,737.814636 424.214142,738.201599 
	C426.661011,738.459412 429.107880,738.717285 432.139496,739.036682 
	C427.553833,744.119324 423.501862,743.453308 417.364197,737.567139 
z"/>
<path fill="#767676" opacity="1.000000" stroke="none" 
	d="
M334.437622,731.779785 
	C333.962463,731.578308 333.885315,731.601257 333.856079,731.601501 
	C335.185028,731.032959 336.664948,730.651306 337.879517,729.861572 
	C342.208649,727.046814 347.641846,728.239929 349.036713,732.664978 
	C349.402740,733.826233 348.562134,735.410828 348.125732,736.752136 
	C348.015991,737.089355 346.946167,737.423645 346.957703,737.447266 
	C349.973083,743.635193 344.863281,742.304077 342.142303,742.271301 
	C337.601868,742.216675 335.322784,739.440186 335.207703,734.895264 
	C335.183075,733.922119 335.014832,732.952515 334.437622,731.779785 
M342.679169,736.791809 
	C342.334167,737.331726 341.989166,737.871643 341.644165,738.411499 
	C343.038116,738.318909 344.432037,738.226318 345.825989,738.133728 
	C345.810944,737.786072 345.795898,737.438416 345.780853,737.090698 
	C345.013977,736.986755 344.247101,736.882751 342.679169,736.791809 
z"/>
<path fill="#767676" opacity="1.000000" stroke="none" 
	d="
M434.021118,735.102417 
	C434.765564,730.055664 437.829224,728.037903 442.150879,728.428711 
	C446.367188,728.809937 448.525574,731.534546 448.414520,736.566650 
	C445.412415,736.699341 442.521393,736.827148 439.630371,736.954895 
	C439.568634,737.290588 439.506897,737.626282 439.445129,737.961975 
	C442.072906,738.391846 444.700653,738.821716 448.106110,739.378784 
	C441.566406,744.756409 435.696594,742.675598 434.021118,735.102417 
z"/>
<path fill="#767676" opacity="1.000000" stroke="none" 
	d="
M311.328186,742.178345 
	C307.318634,745.274780 306.919373,741.665283 305.829468,739.557617 
	C304.406738,740.877808 303.041229,742.144897 301.675690,743.412048 
	C300.551422,741.776978 299.234741,740.237976 298.357300,738.479736 
	C297.488647,736.739136 297.063110,734.777405 296.443237,732.912659 
	C296.854919,732.543274 297.266632,732.173889 297.678345,731.804504 
	C299.123077,733.428040 300.567841,735.051636 301.810547,736.448181 
	C302.967987,735.186096 304.371735,733.655457 305.775513,732.124817 
	C306.789001,733.481567 307.802490,734.838318 308.865997,736.262024 
	C310.205444,734.806519 311.664337,733.221252 313.123199,731.635986 
	C313.610687,731.972168 314.098175,732.308350 314.585663,732.644531 
	C313.551117,735.716980 312.516571,738.789429 311.328186,742.178345 
z"/>
<path fill="#767676" opacity="1.000000" stroke="none" 
	d="
M279.420349,732.565918 
	C280.200531,734.217346 280.727295,735.597534 281.433472,737.447754 
	C282.722198,735.420105 283.767059,733.776184 284.811890,732.132202 
	C286.205444,733.473572 287.598999,734.815002 289.011566,736.174744 
	C290.173187,734.808167 291.545044,733.194275 292.916901,731.580444 
	C293.378601,731.845154 293.840332,732.109802 294.302063,732.374512 
	C293.371094,735.445679 292.570129,738.566650 291.423981,741.555298 
	C291.110779,742.371948 289.300903,743.491211 288.966431,743.271484 
	C287.517853,742.319580 286.361328,740.923218 285.393707,739.977112 
	C284.337372,740.948242 282.995178,742.182251 281.652985,743.416199 
	C280.501221,741.805847 279.213837,740.272461 278.242340,738.559875 
	C277.518463,737.283691 276.872620,735.781189 276.849213,734.368591 
	C276.837982,733.690247 278.346588,732.986755 279.420349,732.565918 
z"/>
<path fill="#767676" opacity="1.000000" stroke="none" 
	d="
M262.576904,743.298706 
	C260.995178,742.170532 259.372437,741.144653 258.581940,739.671936 
	C257.440216,737.545166 256.901917,735.094360 256.106171,732.781738 
	C256.568268,732.435486 257.030365,732.089172 257.492432,731.742859 
	C258.854950,733.373413 260.217468,735.004028 261.731079,736.815430 
	C262.603668,735.407104 263.625702,733.757568 264.647766,732.108032 
	C266.054657,733.459595 267.461578,734.811157 268.865295,736.159668 
	C270.070374,734.782349 271.475464,733.176392 272.880585,731.570374 
	C273.346588,731.836670 273.812592,732.102966 274.278595,732.369202 
	C273.507904,734.796265 272.894623,737.289917 271.906799,739.625122 
	C271.324829,741.000854 270.126678,743.145386 269.244720,743.126465 
	C267.880096,743.097168 266.548859,741.512939 264.905090,740.382996 
	C264.493988,740.963074 263.700836,742.082275 262.576904,743.298706 
z"/>
<path fill="#A2A2A2" opacity="1.000000" stroke="none" 
	d="
M484.746826,719.700562 
	C481.340149,717.135925 478.299530,714.465759 475.323547,711.852356 
	C477.946899,711.501709 480.190155,711.295959 482.393951,710.880676 
	C484.547913,710.474731 486.661591,709.855042 489.034821,709.269470 
	C489.781128,709.533508 491.286682,709.709534 492.293945,710.511353 
	C493.604126,711.554382 494.518463,713.094666 495.603149,714.420898 
	C494.326935,715.371948 492.552429,717.408203 491.858948,717.089844 
	C488.502136,715.548706 487.082611,718.101685 484.746826,719.700562 
z"/>
<path fill="#A2A2A2" opacity="1.000000" stroke="none" 
	d="
M438.063995,716.805542 
	C437.182159,716.603577 436.300323,716.401672 435.418488,716.199707 
	C436.315430,712.664673 433.483154,712.581787 431.623535,712.868042 
	C430.260651,713.077881 429.145050,714.894226 427.677094,716.211853 
	C427.375275,715.471252 426.893188,714.288452 426.276550,712.775513 
	C423.949432,717.501099 420.444427,718.018616 416.537720,715.151917 
	C415.576294,714.446411 413.556488,715.183105 411.108765,715.300720 
	C411.210083,713.897461 411.266205,711.277344 411.796295,708.757019 
	C411.846802,708.516663 414.858948,708.899231 416.248230,709.395020 
	C415.080719,710.076294 414.161163,710.355225 413.241577,710.634155 
	C413.402313,711.118713 413.563019,711.603271 413.723755,712.087891 
	C414.990112,711.556641 416.256470,711.025452 417.522827,710.494202 
	C424.091980,710.992859 430.661133,711.491577 437.855499,711.992676 
	C438.376465,712.804016 438.272186,713.612915 438.238861,714.561401 
	C438.369812,714.908630 438.359253,715.112732 438.223877,715.686157 
	C438.134430,716.307922 438.099213,716.556702 438.063995,716.805542 
z"/>
<path fill="#767676" opacity="1.000000" stroke="none" 
	d="
M389.219574,742.242554 
	C390.290405,739.475281 391.160583,736.975403 391.936157,734.126099 
	C392.553375,732.259766 393.265198,730.742798 394.031799,729.109253 
	C396.682190,729.109253 399.488770,729.109253 402.680878,729.208191 
	C403.066406,729.307129 403.087372,729.261230 403.102722,729.239502 
	C400.293457,732.697327 396.292114,735.539062 397.266632,741.090759 
	C397.328064,741.440552 392.763458,742.602478 390.351013,743.386536 
	C391.040619,744.583069 391.730225,745.779602 392.419800,746.976135 
	C391.286163,745.487427 390.152557,743.998779 389.219574,742.242554 
z"/>
<path fill="#8C8C8C" opacity="1.000000" stroke="none" 
	d="
M328.374817,712.315430 
	C329.788818,712.233948 331.202789,712.152527 332.812714,712.059753 
	C332.881744,716.488464 330.723755,717.228943 327.399445,716.829163 
	C323.903687,716.408752 320.376862,716.246948 316.422852,715.937622 
	C316.284576,715.405762 315.960114,714.157715 315.275269,712.446045 
	C314.696838,710.989990 314.478821,709.997559 314.260834,709.005066 
	C316.355743,709.173950 318.450684,709.342773 321.203522,709.564697 
	C324.046600,709.228394 327.693604,708.797058 331.340637,708.365662 
	C331.422607,708.886597 331.504608,709.407471 331.586578,709.928345 
	C330.231750,710.252014 328.876892,710.575623 327.177429,711.467529 
	C327.071960,712.626709 327.311096,713.217773 327.550262,713.808777 
	C327.825134,713.310974 328.099976,712.813232 328.374817,712.315430 
z"/>
<path fill="#8C8C8C" opacity="1.000000" stroke="none" 
	d="
M366.052460,709.097473 
	C367.421295,709.774597 368.790131,710.451721 370.275391,711.186401 
	C372.698059,708.324219 377.467163,707.375488 381.274261,709.545105 
	C379.491791,710.491699 377.656586,711.466370 375.821381,712.440979 
	C376.048035,712.866272 376.274689,713.291565 376.501343,713.716858 
	C378.343719,713.058777 380.186096,712.400696 382.028473,711.742615 
	C382.415314,712.307312 382.802185,712.872009 383.189026,713.436707 
	C381.842255,714.609192 380.372986,716.855652 379.175476,716.719055 
	C377.024902,716.473816 375.037506,714.797485 372.648193,713.544067 
	C372.429413,713.907898 371.490906,715.468628 369.968933,717.999695 
	C368.783203,715.345947 367.965485,713.515930 367.007446,711.068115 
	C366.595581,709.999390 366.324005,709.548462 366.052460,709.097473 
z"/>
<path fill="#767676" opacity="1.000000" stroke="none" 
	d="
M344.044373,709.103088 
	C347.511780,709.041504 351.025909,708.645569 354.418457,709.119629 
	C355.452515,709.264160 357.088013,712.067932 356.773987,713.182007 
	C356.355682,714.666260 354.441742,716.464233 352.919159,716.739746 
	C350.255127,717.221619 347.399872,716.646851 344.463562,715.923218 
	C344.216370,713.255493 344.130371,711.179260 344.044373,709.103088 
M348.693420,714.606812 
	C348.989655,714.385864 349.285889,714.164917 349.582153,713.944031 
	C349.401764,713.754639 349.221344,713.565308 349.040955,713.375916 
	C348.807495,713.663330 348.574036,713.950745 348.693420,714.606812 
z"/>
<path fill="#8C8C8C" opacity="1.000000" stroke="none" 
	d="
M392.730133,709.027344 
	C396.249695,708.809875 399.820435,708.196228 403.254608,708.639771 
	C404.170532,708.758118 404.903748,712.071777 405.243988,714.002441 
	C405.383148,714.792114 404.220459,716.589966 403.713287,716.566467 
	C402.278931,716.499878 400.411499,716.140259 399.545929,715.161255 
	C396.317535,711.509705 395.506836,715.177734 393.498535,716.388977 
	C392.931763,713.700867 392.830933,711.364136 392.730133,709.027344 
M399.927002,712.556274 
	C399.740753,712.490479 399.554504,712.424683 399.368256,712.358948 
	C399.430115,712.556152 399.491943,712.753357 399.927002,712.556274 
z"/>
<path fill="#767676" opacity="1.000000" stroke="none" 
	d="
M483.041901,739.509644 
	C483.041901,739.509644 483.030090,739.453613 483.038269,739.426208 
	C482.239319,742.992676 479.998566,743.959167 476.590363,743.057495 
	C473.189270,742.157715 472.362274,739.666504 472.587830,736.644470 
	C472.854980,733.065002 475.187622,731.399109 478.534424,731.452454 
	C479.843292,731.473328 481.135651,732.529053 482.744934,733.333130 
	C483.054382,733.552734 483.028748,733.507080 482.661255,733.660767 
	C481.434387,734.169128 480.519653,734.430359 479.728210,734.899597 
	C478.426025,735.671631 477.203644,736.578247 475.947662,737.428223 
	C477.372192,738.240845 478.731293,739.229431 480.248230,739.793579 
	C481.035339,740.086365 482.101685,739.628418 483.041901,739.509644 
z"/>
<path fill="#A2A2A2" opacity="1.000000" stroke="none" 
	d="
M460.793884,710.567932 
	C464.493958,711.983337 463.503876,714.272827 462.435516,717.705566 
	C461.553009,715.634583 461.083069,714.531677 460.895233,714.090881 
	C459.272675,715.194031 457.628540,716.311768 455.119812,718.017334 
	C455.119812,713.955322 455.119812,711.373474 455.119812,708.990967 
	C457.023438,709.551514 458.735260,710.055603 460.793884,710.567932 
z"/>
<path fill="#A2A2A2" opacity="1.000000" stroke="none" 
	d="
M510.984314,710.500610 
	C515.687073,713.833679 515.437683,714.523010 507.845856,719.076843 
	C507.181946,716.063110 506.558350,713.232117 506.053802,710.941772 
	C507.854034,710.762390 509.241302,710.624207 510.984314,710.500610 
z"/>
<path fill="#A2A2A2" opacity="1.000000" stroke="none" 
	d="
M365.682739,709.002747 
	C366.324005,709.548462 366.595581,709.999390 366.941223,710.704102 
	C366.639404,711.629028 366.313721,712.335083 365.877258,712.964294 
	C364.921417,714.342407 364.058472,716.640076 362.886963,716.822327 
	C360.900024,717.131348 359.801422,716.010010 360.044220,713.111633 
	C360.376648,709.143311 360.558136,706.637817 365.682739,709.002747 
z"/>
<path fill="#8C8C8C" opacity="1.000000" stroke="none" 
	d="
M391.698456,716.868835 
	C390.089874,716.868835 388.481293,716.868835 386.465088,716.868835 
	C386.465088,714.002258 386.465088,711.358826 386.465088,707.851013 
	C388.295654,708.332458 389.818909,708.733032 391.012482,709.579346 
	C390.045013,710.099976 389.407166,710.174866 388.596161,710.270081 
	C389.567413,710.993591 390.352692,711.578552 391.299011,712.283447 
	C389.996124,712.927063 389.088989,713.375244 388.219635,713.804688 
	C389.574097,714.997742 390.636292,715.933289 391.698456,716.868835 
z"/>
<path fill="#A2A2A2" opacity="1.000000" stroke="none" 
	d="
M468.418518,713.509521 
	C467.776672,712.085327 467.134796,710.661194 466.492920,709.237000 
	C467.807526,708.873840 469.122162,708.510681 470.436829,708.147522 
	C470.545288,708.536682 470.653748,708.925842 470.762207,709.315063 
	C469.906097,709.772827 469.050018,710.230652 467.901581,710.844788 
	C469.942139,712.249756 471.691956,713.454651 473.885254,714.964783 
	C472.207306,715.758789 470.808350,716.805786 469.322388,716.948975 
	C468.656555,717.013123 467.816254,715.266052 467.574341,714.556152 
	C468.524506,714.785522 468.955475,714.799744 469.386414,714.813965 
	C469.063782,714.379150 468.741150,713.944336 468.418518,713.509521 
z"/>
<path fill="#F4F4F8" opacity="1.000000" stroke="none" 
	d="
M446.003693,711.000000 
	C446.198273,711.007263 446.392853,711.014465 446.807526,711.421387 
	C448.288330,712.526489 449.549042,713.232056 450.809723,713.937561 
	C451.075317,714.908936 451.340942,715.880371 451.606537,716.851685 
	C449.933075,716.983765 448.259613,717.115845 446.172882,716.763977 
	C445.840973,714.520081 445.922333,712.760010 446.003693,711.000000 
z"/>
<path fill="#767676" opacity="1.000000" stroke="none" 
	d="
M313.872955,708.745117 
	C314.478821,709.997559 314.696838,710.989990 314.919098,712.255859 
	C313.691467,713.465881 312.459564,714.402588 310.837952,715.683105 
	C310.252625,716.034241 310.056976,716.041565 309.861298,716.048889 
	C309.782288,714.393799 309.703857,712.738708 309.624176,711.083618 
	C309.480072,708.090515 311.143829,707.784851 313.872955,708.745117 
z"/>
<path fill="#F4F4F8" opacity="1.000000" stroke="none" 
	d="
M392.089905,716.892578 
	C390.636292,715.933289 389.574097,714.997742 388.219635,713.804688 
	C389.088989,713.375244 389.996124,712.927063 391.299011,712.283447 
	C390.352692,711.578552 389.567413,710.993591 388.596161,710.270081 
	C389.407166,710.174866 390.045013,710.099976 391.046997,709.998535 
	C391.725494,709.714905 392.039886,709.457825 392.542206,709.114014 
	C392.830933,711.364136 392.931763,713.700867 393.148804,716.460083 
	C393.003815,716.893860 392.742584,716.905151 392.089905,716.892578 
z"/>
<path fill="#8C8C8C" opacity="1.000000" stroke="none" 
	d="
M343.709442,709.145569 
	C344.130371,711.179260 344.216370,713.255493 344.161316,715.650635 
	C342.963562,714.641174 341.906799,713.312866 340.475616,711.637207 
	C340.118469,710.881531 340.135742,710.473083 340.153015,710.064636 
	C341.226837,709.772461 342.300690,709.480225 343.709442,709.145569 
z"/>
<path fill="#F4F4F8" opacity="1.000000" stroke="none" 
	d="
M339.813599,710.082275 
	C340.135742,710.473083 340.118469,710.881531 340.130005,711.595459 
	C339.346069,713.860840 338.533295,715.820801 337.720520,717.780762 
	C336.794098,714.718628 334.964996,711.442810 339.813599,710.082275 
z"/>
<path fill="#8C8C8C" opacity="1.000000" stroke="none" 
	d="
M438.430328,716.908447 
	C438.099213,716.556702 438.134430,716.307922 438.472961,715.833740 
	C439.103577,715.378357 439.430847,715.148438 439.758118,714.918518 
	C439.228027,714.752991 438.697968,714.587463 438.167908,714.421875 
	C438.272186,713.612915 438.376465,712.804016 438.185730,711.985962 
	C439.181091,711.860657 440.471436,711.744446 441.973297,712.163452 
	C442.069397,714.108704 441.954010,715.518616 441.838623,716.928589 
	C440.824646,716.956116 439.810638,716.983704 438.430328,716.908447 
z"/>
<path fill="#A2A2A2" opacity="1.000000" stroke="none" 
	d="
M450.855530,713.596069 
	C449.549042,713.232056 448.288330,712.526489 447.098450,711.446777 
	C449.317047,710.254028 451.147736,709.977844 450.855530,713.596069 
z"/>
<path fill="#A2A2A2" opacity="1.000000" stroke="none" 
	d="
M499.301819,715.203979 
	C499.908447,714.342834 500.320740,713.643738 500.903168,712.656067 
	C501.678192,713.756958 502.401398,714.784180 503.986969,717.036377 
	C501.565063,716.207336 500.336243,715.786682 499.301819,715.203979 
z"/>
<path fill="#A2A2A2" opacity="1.000000" stroke="none" 
	d="
M445.798706,710.810364 
	C445.922333,712.760010 445.840973,714.520081 445.832245,716.620483 
	C445.504669,716.970886 445.104431,716.980957 444.300415,716.597656 
	C443.402618,714.776428 442.908630,713.348511 442.414612,711.920593 
	C442.824738,711.261658 443.234833,710.602722 444.098969,709.770508 
	C444.552979,709.597229 444.964569,709.699707 444.964569,709.699707 
	C445.174316,710.006714 445.384033,710.313721 445.798706,710.810364 
z"/>
<path fill="#F4F4F8" opacity="1.000000" stroke="none" 
	d="
M442.433289,711.922485 
	C442.908630,713.348511 443.402618,714.776428 444.000305,716.578125 
	C443.600372,716.959717 443.096802,716.967590 442.215942,716.952026 
	C441.954010,715.518616 442.069397,714.108704 442.327301,712.294189 
	C442.469788,711.889648 442.451965,711.924377 442.433289,711.922485 
z"/>
<path fill="#F4F4F8" opacity="1.000000" stroke="none" 
	d="
M444.904968,709.588623 
	C444.964569,709.699707 444.552979,709.597229 444.371460,709.490112 
	C444.437439,709.246033 444.655914,709.277527 444.904968,709.588623 
z"/>
<path fill="#8C8C8C" opacity="1.000000" stroke="none" 
	d="
M309.935242,716.311707 
	C310.056976,716.041565 310.252625,716.034241 310.741943,716.018250 
	C310.693512,716.197937 310.351349,716.386230 309.935242,716.311707 
z"/>
<path fill="#F4F4F8" opacity="1.000000" stroke="none" 
	d="
M264.772583,431.679047 
	C263.608734,429.772308 262.290497,428.075409 262.192719,426.310913 
	C261.898651,421.003876 262.094238,415.670441 262.071259,410.347412 
	C262.055725,406.748016 263.636719,404.681854 267.404236,404.630920 
	C282.744965,404.423523 281.975861,403.821106 281.805206,417.781433 
	C281.782837,419.610992 281.805511,421.441040 281.802460,423.270874 
	C281.788391,431.711426 281.310760,432.200562 272.633179,432.175323 
	C270.147186,432.168091 267.661774,431.969086 264.772583,431.679047 
z"/>
<path fill="#F4F4F8" opacity="1.000000" stroke="none" 
	d="
M172.179779,381.928192 
	C172.179596,376.120056 172.179596,370.801300 172.179596,364.905365 
	C177.113556,364.905365 181.911743,364.439056 186.528412,365.150543 
	C188.213638,365.410278 190.496552,368.351288 190.718521,370.275360 
	C191.306107,375.368225 190.972977,380.574646 190.896713,385.734283 
	C190.843384,389.341339 188.698593,391.312073 185.286331,391.511597 
	C181.169525,391.752380 177.027908,391.568604 172.179977,391.568604 
	C172.179977,388.263947 172.179977,385.340759 172.179779,381.928192 
z"/>
<path fill="#F4F4F8" opacity="1.000000" stroke="none" 
	d="
M490.486877,734.890625 
	C490.589752,736.830505 490.380066,738.604797 490.170349,740.379089 
	C488.992188,739.739014 487.045044,739.321777 486.782593,738.416260 
	C486.046783,735.877563 487.152222,734.223328 490.486877,734.890625 
z"/>
<path fill="#FFFFFF" opacity="1.000000" stroke="none" 
	d="
M483.187622,739.005615 
	C482.101685,739.628418 481.035339,740.086365 480.248230,739.793579 
	C478.731293,739.229431 477.372192,738.240845 475.947662,737.428223 
	C477.203644,736.578247 478.426025,735.671631 479.728210,734.899597 
	C480.519653,734.430359 481.434387,734.169128 482.659424,733.634705 
	C483.127808,735.137146 483.230560,736.819336 483.187622,739.005615 
z"/>
<path fill="#F4F4F8" opacity="1.000000" stroke="none" 
	d="
M388.091644,733.747437 
	C387.601990,735.575317 387.546143,737.342651 386.636688,738.294189 
	C385.718384,739.255066 382.914398,740.090576 382.726044,739.804138 
	C381.353424,737.716736 380.294586,735.378540 379.498260,732.998596 
	C379.358978,732.582336 381.129791,730.854248 381.663666,731.003235 
	C383.860748,731.616394 387.287231,729.130859 388.091644,733.747437 
z"/>
<path fill="#FFFFFF" opacity="1.000000" stroke="none" 
	d="
M343.079712,736.785278 
	C344.247101,736.882751 345.013977,736.986755 345.780853,737.090698 
	C345.795898,737.438416 345.810944,737.786072 345.825989,738.133728 
	C344.432037,738.226318 343.038116,738.318909 341.644165,738.411499 
	C341.989166,737.871643 342.334167,737.331726 343.079712,736.785278 
z"/>
<path fill="#FFFFFF" opacity="1.000000" stroke="none" 
	d="
M417.315247,710.283691 
	C416.256470,711.025452 414.990112,711.556641 413.723755,712.087891 
	C413.563019,711.603271 413.402313,711.118713 413.241577,710.634155 
	C414.161163,710.355225 415.080719,710.076294 416.347595,709.723633 
	C416.832458,709.790955 416.970093,709.932068 417.315247,710.283691 
z"/>
<path fill="#F4F4F8" opacity="1.000000" stroke="none" 
	d="
M438.238861,714.561401 
	C438.697968,714.587463 439.228027,714.752991 439.758118,714.918518 
	C439.430847,715.148438 439.103577,715.378357 438.527191,715.460693 
	C438.359253,715.112732 438.369812,714.908630 438.238861,714.561401 
z"/>
<path fill="#FFFFFF" opacity="1.000000" stroke="none" 
	d="
M328.124512,712.109253 
	C328.099976,712.813232 327.825134,713.310974 327.550262,713.808777 
	C327.311096,713.217773 327.071960,712.626709 327.081116,711.793335 
	C327.511017,711.668335 327.692596,711.785645 328.124512,712.109253 
z"/>
<path fill="#8C8C8C" opacity="1.000000" stroke="none" 
	d="
M348.516998,714.422485 
	C348.574036,713.950745 348.807495,713.663330 349.040955,713.375916 
	C349.221344,713.565308 349.401764,713.754639 349.582153,713.944031 
	C349.285889,714.164917 348.989655,714.385864 348.516998,714.422485 
z"/>
<path fill="#FFFFFF" opacity="1.000000" stroke="none" 
	d="
M399.740417,712.753418 
	C399.491943,712.753357 399.430115,712.556152 399.368256,712.358948 
	C399.554504,712.424683 399.740753,712.490479 399.740417,712.753418 
z"/>
<path fill="#FFFFFF" opacity="1.000000" stroke="none" 
	d="
M468.239838,713.715576 
	C468.741150,713.944336 469.063782,714.379150 469.386414,714.813965 
	C468.955475,714.799744 468.524506,714.785522 467.898376,714.552124 
	C467.822510,714.195923 467.941833,714.058777 468.239838,713.715576 
z"/>
</svg>