<?xml version="1.0" encoding="UTF-8"?>
<svg version="1.1" xmlns="http://www.w3.org/2000/svg" width="1536" height="1024">
<path d="M0 0 C506.88 0 1013.76 0 1536 0 C1536 337.92 1536 675.84 1536 1024 C1029.12 1024 522.24 1024 0 1024 C0 686.08 0 348.16 0 0 Z " fill="#FEFDFD" transform="translate(0,0)"/>
<path d="M0 0 C0.83036774 -0.00029205 1.66073547 -0.00058411 2.51626587 -0.00088501 C5.22701934 0.00049452 7.93748865 0.01598995 10.64819336 0.03173828 C12.5410497 0.03547332 14.43390799 0.03831797 16.32676697 0.04031372 C21.28332964 0.04791152 26.23977313 0.06752653 31.19628906 0.08972168 C36.26422514 0.11026352 41.33218068 0.1193332 46.40014648 0.12939453 C56.32532875 0.15077638 66.25042298 0.1848653 76.17553711 0.22705078 C76.44325928 1.51450195 76.71098145 2.80195313 76.98681641 4.12841797 C77.34522198 5.84360275 77.70370597 7.55877116 78.06225586 9.27392578 C78.23785034 10.11938965 78.41344482 10.96485352 78.59436035 11.8359375 C79.62287146 16.74716701 80.7359415 21.61796376 81.98803711 26.47705078 C86.85553472 45.57312295 90.89029793 64.89055173 95.09674072 84.14102173 C97.82038416 96.60421074 100.56119609 109.05960884 103.48803711 121.47705078 C106.76874521 135.39818556 109.95170323 149.34084762 113.11303711 163.28955078 C113.37391113 164.44049225 113.63478516 165.59143372 113.90356445 166.7772522 C117.17463928 181.22369661 120.38636588 195.68080523 123.48803711 210.16455078 C125.94079343 221.61519367 128.48919585 233.03510562 131.1784668 244.43310547 C134.13592034 256.98833279 137.00874125 269.5626435 139.87686157 282.1385498 C140.43997194 284.60762285 141.00341438 287.07662018 141.56723022 289.54553223 C144.82399314 303.80804666 148.04990349 318.07658882 151.19398499 332.36442566 C151.42500412 333.41068619 151.65602325 334.45694672 151.89404297 335.53491211 C152.1110788 336.51843658 152.32811462 337.50196106 152.55172729 338.51528931 C153.10016232 340.89938928 153.70876477 343.25492767 154.34570312 345.61645508 C155.17553711 349.22705078 155.17553711 349.22705078 155.17553711 355.22705078 C126.13553711 355.22705078 97.09553711 355.22705078 67.17553711 355.22705078 C65.85905987 350.61938043 64.63407 346.0949296 63.55444336 341.43798828 C63.25860352 340.16568359 62.96276367 338.89337891 62.65795898 337.58251953 C62.35128191 336.25570504 62.04464141 334.92888209 61.73803711 333.60205078 C61.43546267 332.29862823 61.13272932 330.99524255 60.82983398 329.69189453 C60.23325103 327.12179964 59.63898316 324.55116618 59.04711914 321.97998047 C58.47088984 319.49880489 57.88350336 317.02019129 57.28442383 314.54443359 C57.01001465 313.40071289 56.73560547 312.25699219 56.45288086 311.07861328 C56.20658936 310.06879395 55.96029785 309.05897461 55.70654297 308.01855469 C55.17553711 305.22705078 55.17553711 305.22705078 55.17553711 300.22705078 C13.92553711 300.22705078 -27.32446289 300.22705078 -69.82446289 300.22705078 C-70.81446289 303.19705078 -71.80446289 306.16705078 -72.82446289 309.22705078 C-73.62314693 311.3579763 -74.43957344 313.48237717 -75.27758789 315.59814453 C-75.73262695 316.75121094 -76.18766602 317.90427734 -76.65649414 319.09228516 C-77.12442383 320.27113281 -77.59235352 321.44998047 -78.07446289 322.66455078 C-82.36167553 333.50472518 -86.59921086 344.36211699 -90.82446289 355.22705078 C-123.16446289 355.22705078 -155.50446289 355.22705078 -188.82446289 355.22705078 C-187.69954188 348.47752473 -187.69954188 348.47752473 -186.14135742 345.0871582 C-185.79615051 344.3265358 -185.4509436 343.56591339 -185.09527588 342.78224182 C-184.71973572 341.97383347 -184.34419556 341.16542511 -183.95727539 340.33251953 C-183.37124542 339.04794106 -183.37124542 339.04794106 -182.77337646 337.7374115 C-181.50503057 334.96019677 -180.22716639 332.18747096 -178.94946289 329.41455078 C-177.63648686 326.5441464 -176.32614916 323.67254777 -175.01602173 320.80084229 C-174.15057437 318.90412209 -173.28434628 317.00775793 -172.41732788 315.11175537 C-169.11482659 307.88550361 -165.8792679 300.63324929 -162.69946289 293.35205078 C-161.84806757 291.40666511 -160.99651205 289.46134953 -160.14477539 287.51611328 C-159.55744629 286.17468262 -159.55744629 286.17468262 -158.95825195 284.80615234 C-154.56030878 274.80187334 -150.02557985 264.85807941 -145.49243164 254.91455078 C-137.79295374 238.02120127 -130.18361032 221.09112145 -122.65873718 204.1192627 C-122.32928604 203.37623901 -121.9998349 202.63321533 -121.66040039 201.86767578 C-121.33397049 201.13141968 -121.00754059 200.39516357 -120.67121887 199.63659668 C-117.57536084 192.65786474 -114.45257791 185.69138647 -111.32446289 178.72705078 C-101.91263229 157.76219813 -92.56474603 136.76811393 -83.32446289 115.72705078 C-76.95576289 101.23123662 -70.54119215 86.75613217 -64.08666992 72.29833984 C-62.50852197 68.76282394 -60.93461107 65.22545456 -59.36303711 61.68701172 C-57.25202004 56.93563267 -55.13148245 52.18859461 -53.00512695 47.44406128 C-52.18652443 45.61380059 -51.37085394 43.78222526 -50.55834961 41.94924927 C-37.07153506 11.54333234 -37.07153506 11.54333234 -20.60961914 3.27001953 C-13.83182976 0.73191327 -7.19545408 -0.06785878 0 0 Z " fill="#0B33C0" transform="translate(1226.824462890625,331.77294921875)"/>
<path d="M0 0 C23.94828763 -0.04675881 47.89656839 -0.08200788 71.8448925 -0.10362434 C82.96496992 -0.11392883 94.08501894 -0.12797338 105.20507812 -0.15087891 C114.89939173 -0.17083808 124.59368476 -0.18372245 134.28801835 -0.18817699 C139.41918937 -0.19078008 144.55030157 -0.19688129 149.6814537 -0.21146011 C154.51587633 -0.22508394 159.35021614 -0.22921295 164.18465614 -0.22621536 C165.95427336 -0.22676338 167.72389348 -0.23071212 169.49349403 -0.23841095 C184.68037711 -0.30121512 197.94211323 0.7367113 210.4375 10.4375 C219.57302971 19.57302971 222.39959426 30.49017158 224.66378784 42.93466187 C225.22801069 46.03423831 225.81563835 49.12928626 226.40083313 52.22496033 C226.7274506 53.95460495 227.0528421 55.68448145 227.37712097 57.41456604 C229.42232931 68.31160739 231.57744041 79.18704082 233.72305298 90.06466675 C234.91273725 96.09734321 236.09922004 102.13064825 237.28515625 108.1640625 C237.5166185 109.34143478 237.74808075 110.51880707 237.98655701 111.7318573 C239.43753383 119.11873885 240.87790262 126.5076017 242.30859375 133.8984375 C246.55174112 155.86114061 246.55174112 155.86114061 251.20849609 177.73901367 C253.52574331 188.19780863 255.49299655 198.72595102 257.5078125 209.24609375 C259.60294831 220.17777296 261.79865264 231.08929514 264 242 C270.15084813 227.53744262 276.24187882 213.05297027 282.23535156 198.52441406 C285.03156597 191.74781327 287.84135214 184.97719537 290.671875 178.21484375 C298.12245348 160.40932351 305.44118113 142.56302893 312.56152344 124.62255859 C314.9699144 118.55743552 317.39047218 112.49718791 319.8125 106.4375 C320.17890091 105.51999466 320.17890091 105.51999466 320.55270386 104.58395386 C323.51985505 97.15533192 326.50852793 89.73591165 329.52734375 82.328125 C340.65921054 55.00324014 351.40820919 27.53865611 362 0 C395.33 0 428.66 0 463 0 C462.18710788 4.06446059 461.29112558 6.954786 459.65625 10.6796875 C459.16108887 11.81494873 458.66592773 12.95020996 458.15576172 14.11987305 C457.60391378 15.37161406 457.05199059 16.62332189 456.5 17.875 C455.91765676 19.2052773 455.33580133 20.53576824 454.75439453 21.86645508 C453.4990553 24.73799771 452.24106313 27.60835911 450.98144531 30.47802734 C448.98523824 35.02910822 447.00311342 39.58623994 445.0234375 44.14453125 C435.4879278 66.09077793 425.83924054 87.9860767 416.15505981 109.86706543 C412.75671337 117.54660843 409.37238967 125.23224809 405.99414062 132.9206543 C403.48952258 138.61923923 400.97810463 144.31476296 398.4609375 150.0078125 C397.18209132 152.90095316 395.90347439 155.79419504 394.625 158.6875 C394.14342941 159.77718582 394.14342941 159.77718582 393.65213013 160.8888855 C389.2823098 170.78061584 384.96541729 180.69313239 380.6875 190.625 C373.43534453 207.43338704 365.89007342 224.10866017 358.35253906 240.79052734 C354.45482691 249.41863182 350.57187012 258.05338319 346.6875 266.6875 C345.92635579 268.37907121 345.16520674 270.07064023 344.40405273 271.76220703 C332.51560339 298.18374782 332.51560339 298.18374782 320.71484375 324.64453125 C320.34901184 325.46841339 319.98317993 326.29229553 319.60626221 327.1411438 C317.80348304 331.20180014 316.00202701 335.26303612 314.20263672 339.32519531 C313.5478683 340.80143971 312.89308393 342.27767704 312.23828125 343.75390625 C311.93993881 344.42855423 311.64159637 345.10320221 311.33421326 345.79829407 C309.95463852 348.90645533 308.52156735 351.9568653 307 355 C274.33 355 241.66 355 208 355 C206.13217948 349.39653844 204.39728583 344.00016156 202.9140625 338.31640625 C202.73203278 337.62296616 202.55000305 336.92952606 202.36245728 336.21507263 C201.97806813 334.74990793 201.59493747 333.28441254 201.2130127 331.81860352 C200.21872402 328.00368899 199.21442463 324.19140956 198.2109375 320.37890625 C197.91884399 319.26789047 197.91884399 319.26789047 197.62084961 318.13442993 C195.66934395 310.72169117 193.63264866 303.33439917 191.55175781 295.95703125 C190.56954074 292.4732029 189.59629708 288.98688662 188.625 285.5 C188.42213379 284.77248535 188.21926758 284.0449707 188.01025391 283.29541016 C186.47609835 277.77079926 184.99004274 272.23405457 183.51147461 266.69433594 C180.97015278 257.17855198 178.35877356 247.69418331 175.5625 238.25 C172.64896096 228.40814431 169.97254694 218.51213407 167.35424805 208.58886719 C165.34671632 200.98397632 163.2803939 193.41800782 160.99902344 185.89086914 C158.68848242 178.14526253 156.67908251 170.31649883 154.625 162.5 C151.769484 151.63782961 148.86771902 140.79449692 145.80737305 129.98779297 C143.94796449 123.41241649 142.12823087 116.82723524 140.33203125 110.234375 C139.85012162 108.46890622 139.3681878 106.70344404 138.88623047 104.93798828 C138.17298343 102.3247766 137.46086185 99.71129197 136.75299072 97.09661865 C134.2604597 87.89183887 131.67986099 78.71934276 128.87109375 69.60546875 C128.63426376 68.81955353 128.39743378 68.03363831 128.15342712 67.22390747 C126.24318285 61.1361371 123.70797099 56.41435559 119 52 C118.45214844 51.47921875 117.90429688 50.9584375 117.33984375 50.421875 C90.71834457 28.18853503 43.60028052 19.57557468 10.33984375 11.921875 C9.58840088 11.7451123 8.83695801 11.56834961 8.06274414 11.38623047 C6.64675757 11.05534375 5.22803275 10.73587875 3.80639648 10.43017578 C1.9296875 9.9921875 1.9296875 9.9921875 -1 9 C-2.25541557 5.23375329 -1.37061958 3.62811066 0 0 Z " fill="#0B32BF" transform="translate(181,332)"/>
<path d="M0 0 C0.93115631 0.00068481 1.86231262 0.00136963 2.82168579 0.0020752 C18.54314441 0.0401354 33.69512182 0.63049895 49.125 3.9375 C50.37748535 4.20151611 51.6299707 4.46553223 52.92041016 4.73754883 C65.92484394 7.55037572 78.82665518 10.80572046 91 16.25 C90.29708767 24.52063078 88.56904204 32.52826152 86.8125 40.625 C86.4995561 42.0829475 86.18689696 43.54095614 85.87451172 44.99902344 C83.16997266 57.59040936 80.38312554 70.1637656 77.55322266 82.72753906 C77.0044948 85.2295056 76.49417971 87.73674321 76 90.25 C71.60494403 89.54848145 67.62448606 88.04809374 63.5 86.4375 C31.24838972 74.18912743 -9.13295322 67.10270995 -42 81.25 C-48.5020452 84.92198184 -54.13763694 90.35596814 -57.375 97.125 C-58.95879645 105.04398225 -58.28186956 111.28875697 -54 118.25 C-46.52821828 128.3048834 -32.70663171 134.10927621 -21.82473755 139.63543701 C-19.94147341 140.59223459 -18.06202639 141.55620154 -16.18334961 142.52197266 C-11.40871981 144.97532269 -6.62871206 147.41810788 -1.84814453 149.85986328 C13.72885507 157.83283788 28.22967943 166.35177486 42 177.25 C42.77859375 177.86101562 43.5571875 178.47203125 44.359375 179.1015625 C58.98158262 191.28673552 70.74709857 209.67056371 72.82568359 228.85253906 C75.04315643 259.35055483 70.80465828 286.72930596 50.84765625 310.8515625 C48.62218228 313.37819902 46.32924282 315.81897514 44 318.25 C43.26394531 319.06082031 42.52789063 319.87164063 41.76953125 320.70703125 C15.7820249 348.34868373 -24.57937246 359.76741228 -61 364.25 C-61.83982422 364.3538501 -62.67964844 364.4577002 -63.54492188 364.56469727 C-72.29810794 365.50241977 -81.08278264 365.44842078 -89.875 365.4375 C-90.69669678 365.43722809 -91.51839355 365.43695618 -92.36499023 365.43667603 C-105.01977205 365.41742839 -117.44597256 364.9356726 -130 363.25 C-131.78773255 363.02972167 -133.57549394 362.80967727 -135.36328125 362.58984375 C-145.4223385 361.30121251 -155.14580912 359.49569988 -164.92529297 356.80908203 C-167.19500714 356.19745042 -169.47269866 355.62580551 -171.75390625 355.05859375 C-181.13938761 352.70223094 -190.0476907 349.95855705 -199 346.25 C-197.45312543 336.16813379 -195.37469008 326.22147777 -193.25 316.25 C-192.89498944 314.57474789 -192.54017387 312.89945444 -192.18554688 311.22412109 C-191.12776014 306.2318793 -190.06478226 301.24075391 -189 296.25 C-188.75842163 295.11745789 -188.75842163 295.11745789 -188.51196289 293.96203613 C-186.68283437 285.38959632 -184.84604868 276.81881353 -183 268.25 C-178.82238 269.55014398 -174.87868693 271.1460166 -170.88720703 272.91503906 C-152.61349957 280.95224625 -133.70530853 286.16824121 -114 289.25 C-112.80117188 289.44335938 -111.60234375 289.63671875 -110.3671875 289.8359375 C-103.80500332 290.60853566 -97.16182817 290.49441713 -90.5625 290.5 C-89.84757385 290.50067474 -89.13264771 290.50134949 -88.39605713 290.50204468 C-69.39829697 290.47354671 -48.45250582 289.09498898 -34 275.25 C-27.57196304 268.31448644 -26.43900729 262.13373104 -26.65625 252.8828125 C-27.33908497 245.66648841 -30.50702483 240.92944596 -35.76171875 236.06640625 C-50.57404818 224.04592949 -69.03572062 215.85452228 -85.953125 207.19140625 C-100.38541919 199.78986662 -113.53193301 191.67142203 -126 181.25 C-126.55945313 180.81300781 -127.11890625 180.37601563 -127.6953125 179.92578125 C-139.34048473 170.74987329 -147.3942174 157.75643245 -153 144.25 C-153.33 143.47269531 -153.66 142.69539062 -154 141.89453125 C-161.87046077 122.33189559 -157.81405327 97.06273593 -149.875 78.125 C-135.61881732 46.38834639 -107.33526804 24.7325949 -75.5625 12.29589844 C-70.43637895 10.40136953 -65.24883783 8.76736677 -60 7.25 C-59.02184326 6.96068604 -59.02184326 6.96068604 -58.02392578 6.66552734 C-53.38504871 5.31678412 -48.72865933 4.22084171 -44 3.25 C-42.93821533 3.02352783 -42.93821533 3.02352783 -41.85498047 2.79248047 C-28.00132638 -0.0145878 -14.0743188 -0.01487316 0 0 Z " fill="#0B33BF" transform="translate(968,326.75)"/>
<path d="M0 0 C31.68 0 63.36 0 96 0 C91.4671703 23.79735592 91.4671703 23.79735592 88.6875 34.375 C86.22600925 43.99077535 83.90775903 53.62406576 81.75 63.3125 C78.75360152 76.74986765 75.64481338 90.15909946 72.5 103.5625 C72.26128174 104.58025513 72.02256348 105.59801025 71.77661133 106.64660645 C70.83306125 110.6689326 69.88923749 114.69119429 68.94482422 118.71331787 C67.03947104 126.82806869 65.14246837 134.94473479 63.25 143.0625 C62.97309326 144.24956543 62.69618652 145.43663086 62.41088867 146.65966797 C61.08643672 152.33791605 59.76327852 158.01646335 58.44140625 163.6953125 C54.75340815 179.53115224 51.03726717 195.36027367 47.3125 211.1875 C47.05825256 212.26804657 46.80400513 213.34859314 46.54205322 214.46188354 C43.89794411 225.69898329 41.2519747 236.93563786 38.59909058 248.17066956 C33.23987976 270.86820689 27.90064458 293.56669849 22.82080078 316.32861328 C21.42194072 322.58562032 20.00971899 328.83961008 18.5975647 335.09362793 C18.13761119 337.13162146 17.67846692 339.16979586 17.21948242 341.20800781 C16.94338135 342.43229492 16.66728027 343.65658203 16.3828125 344.91796875 C16.13934082 345.99844482 15.89586914 347.0789209 15.64501953 348.19213867 C15.12233205 350.46747126 14.56622281 352.73510877 14 355 C-17.35 355 -48.7 355 -81 355 C-80.33278076 349.66224607 -79.59547434 344.74420704 -78.43359375 339.5390625 C-78.2792688 338.84406143 -78.12494385 338.14906036 -77.96594238 337.43299866 C-77.46042981 335.16275828 -76.94918995 332.89385538 -76.4375 330.625 C-76.07810532 329.01930972 -75.71881345 327.41359644 -75.35961914 325.80786133 C-72.63110679 313.64723628 -69.7926276 301.51354795 -66.91821289 289.38671875 C-64.84756353 280.64489238 -62.8349086 271.89246992 -60.875 263.125 C-57.52788341 248.18723484 -54.04721106 233.28119003 -50.5625 218.375 C-49.33842084 213.13804906 -48.11441142 207.90108185 -46.890625 202.6640625 C-46.65555646 201.65816889 -46.65555646 201.65816889 -46.41573906 200.63195419 C-42.53140457 184.00848876 -38.66866579 167.38002002 -34.8125 150.75 C-34.55890087 149.65633369 -34.55890087 149.65633369 -34.30017853 148.54057312 C-26.6188834 115.41095479 -18.97779397 82.27215625 -11.50317383 49.09521484 C-9.40253068 39.77277364 -7.29167941 30.45269732 -5.16830444 21.13540649 C-4.8092248 19.55884861 -4.45067445 17.98217007 -4.09268188 16.40536499 C-3.59709252 14.22303494 -3.09958243 12.04115148 -2.6015625 9.859375 C-2.31619629 8.60608398 -2.03083008 7.35279297 -1.73681641 6.06152344 C-1 3 -1 3 0 0 Z " fill="#0B32BF" transform="translate(687,332)"/>
<path d="M0 0 C0.66 0 1.32 0 2 0 C3.12936126 5.01986232 4.2536815 10.04083617 5.375 15.0625 C5.55062469 15.84875763 5.72624939 16.63501526 5.90719604 17.44509888 C8.83652444 30.5794794 11.64886778 43.73649485 14.42333984 56.90435791 C17.62528832 72.09924232 20.8581014 87.26568988 24.66821289 102.32202148 C27.14291893 112.18038077 28.99537973 121.97689867 31 132 C4.27 132 -22.46 132 -50 132 C-47.75005475 123.00021898 -47.75005475 123.00021898 -46.51391602 119.83032227 C-46.23430023 119.1062619 -45.95468445 118.38220154 -45.66659546 117.63619995 C-45.36540802 116.87066803 -45.06422058 116.10513611 -44.75390625 115.31640625 C-44.43112701 114.48448761 -44.10834778 113.65256897 -43.77578735 112.79544067 C-42.70914351 110.04937191 -41.63580804 107.30597011 -40.5625 104.5625 C-39.80527311 102.61647604 -39.04852836 100.67026442 -38.29223633 98.72387695 C-36.69161863 94.60634819 -35.08844354 90.48982832 -33.48339844 86.37402344 C-31.00458872 80.01538006 -28.53604927 73.65278502 -26.0703125 67.2890625 C-25.66506348 66.24319977 -25.25981445 65.19733704 -24.84228516 64.11978149 C-24.02817475 62.01864517 -23.21408772 59.91749979 -22.40002441 57.81634521 C-20.41121695 52.68434898 -18.4203604 47.55314786 -16.4296875 42.421875 C-12.55321632 32.4286598 -8.68108772 22.43376952 -4.8125 12.4375 C-4.5576181 11.77889984 -4.30273621 11.12029968 -4.04013062 10.44174194 C-2.69321105 6.96124228 -1.34649259 3.48066486 0 0 Z " fill="#F9F9FD" transform="translate(1235,430)"/>
<path d="M0 0 C1.53237305 0.07250977 1.53237305 0.07250977 3.09570312 0.14648438 C4.67834961 0.2305957 4.67834961 0.2305957 6.29296875 0.31640625 C7.36740234 0.36861328 8.44183594 0.42082031 9.54882812 0.47460938 C12.19303179 0.60388155 14.83681902 0.73883061 17.48046875 0.87890625 C17.48046875 1.20890625 17.48046875 1.53890625 17.48046875 1.87890625 C4.11546875 2.37390625 4.11546875 2.37390625 -9.51953125 2.87890625 C-9.84953125 2.21890625 -10.17953125 1.55890625 -10.51953125 0.87890625 C-6.8970245 0.0257068 -3.71223962 -0.18664892 0 0 Z " fill="#1538CB" transform="translate(1219.51953125,333.12109375)"/>
<path d="M0 0 C0.680625 0.70125 1.36125 1.4025 2.0625 2.125 C4.72871619 4.79883395 7.5596584 7.23971294 10.44921875 9.66796875 C11.68048318 10.72555357 12.85228537 11.85228537 14 13 C13.01 13.495 13.01 13.495 12 14 C10.37081993 12.73452987 8.74679358 11.46242272 7.125 10.1875 C6.22007812 9.47980469 5.31515625 8.77210938 4.3828125 8.04296875 C2 6 2 6 0 3 C0 2.01 0 1.02 0 0 Z " fill="#1431CA" transform="translate(912,443)"/>
<path d="M0 0 C1.28132812 0.00902344 2.56265625 0.01804687 3.8828125 0.02734375 C4.87023437 0.03894531 5.85765625 0.05054688 6.875 0.0625 C6.875 0.3925 6.875 0.7225 6.875 1.0625 C6.03195313 1.11148437 5.18890625 1.16046875 4.3203125 1.2109375 C3.22460938 1.28570312 2.12890625 1.36046875 1 1.4375 C-0.63582031 1.54191406 -0.63582031 1.54191406 -2.3046875 1.6484375 C-5.25546474 1.79503491 -5.25546474 1.79503491 -7.125 4.0625 C-6.795 5.0525 -6.465 6.0425 -6.125 7.0625 C-7.445 6.7325 -8.765 6.4025 -10.125 6.0625 C-9.75 3.625 -9.75 3.625 -9.125 1.0625 C-6.12186252 -0.43906874 -3.33432478 -0.03031204 0 0 Z " fill="#1B3DC9" transform="translate(189.125,333.9375)"/>
<path d="M0 0 C0.33 0 0.66 0 1 0 C1.3227506 4.62609198 0.84450614 7.28026121 -2 11 C-2.66 11 -3.32 11 -4 11 C-2.7874262 7.27566618 -1.49140021 3.62197194 0 0 Z " fill="#1F3CC8" transform="translate(1084,580)"/>
<path d="M0 0 C0.66 0 1.32 0 2 0 C1.34 3.63 0.68 7.26 0 11 C-0.66 10.34 -1.32 9.68 -2 9 C-1.7578125 6.8359375 -1.7578125 6.8359375 -1.125 4.375 C-0.92132812 3.55773437 -0.71765625 2.74046875 -0.5078125 1.8984375 C-0.34023438 1.27195312 -0.17265625 0.64546875 0 0 Z " fill="#1C38C5" transform="translate(723,580)"/>
<path d="M0 0 C0.99 0.66 1.98 1.32 3 2 C1.35 3.32 -0.3 4.64 -2 6 C-2.66 5.34 -3.32 4.68 -4 4 C-2.68 2.68 -1.36 1.36 0 0 Z " fill="#193CC7" transform="translate(1195,342)"/>
<path d="M0 0 C0.99 0 1.98 0 3 0 C2.6875 2.875 2.6875 2.875 2 6 C1.01 6.66 0.02 7.32 -1 8 C-0.67 5.36 -0.34 2.72 0 0 Z " fill="#1538C7" transform="translate(1045,396)"/>
<path d="M0 0 C0.33 0.99 0.66 1.98 1 3 C-2.465 4.485 -2.465 4.485 -6 6 C-6 5.01 -6 4.02 -6 3 C-4.02 2.01 -2.04 1.02 0 0 Z " fill="#1130C8" transform="translate(879,345)"/>
<path d="M0 0 C1.98 0 3.96 0 6 0 C6 0.66 6 1.32 6 2 C4.02 2.33 2.04 2.66 0 3 C0 2.01 0 1.02 0 0 Z " fill="#EDEEF9" transform="translate(1276,632)"/>
<path d="M0 0 C0.99 0 1.98 0 3 0 C3.33 2.31 3.66 4.62 4 7 C3.01 6.67 2.02 6.34 1 6 C0.67 4.02 0.34 2.04 0 0 Z " fill="#1A3CC9" transform="translate(1250,492)"/>
<path d="M0 0 C3.96 1.98 3.96 1.98 8 4 C8 4.66 8 5.32 8 6 C5.125 5.25 5.125 5.25 2 4 C1.34 2.68 0.68 1.36 0 0 Z " fill="#1533CA" transform="translate(972,480)"/>
</svg>
